<svg id="Layer_1" data-name="Layer 1" xmlns="http://www.w3.org/2000/svg" viewBox="0 0 250 250"><rect width="250" height="250" rx="47.26" style="fill:#0c0c0c"/><path d="M134.09,229.71a31.77,31.77,0,0,0,29.84-22.36,68.31,68.31,0,0,1,44.12-44.65,31.67,31.67,0,0,0,21.79-30.12v-.3c-9.44,0-42.18,2.25-68.28,28.74l-.32.33c-25.11,25.71-27.54,56.38-27.42,68.37Z" style="fill:#fff;stroke:#fff;stroke-miterlimit:10"/><path d="M20.29,134.09a31.77,31.77,0,0,0,22.36,29.84,69,69,0,0,1,27.41,16.35A69.28,69.28,0,0,1,87.3,208.05a31.67,31.67,0,0,0,30.12,21.79h.3c0-9.44-2.25-42.18-28.74-68.28l-.33-.32c-25.71-25.11-56.38-27.54-68.37-27.42Z" style="fill:#fff;stroke:#fff;stroke-miterlimit:10"/><path d="M115.91,20.29A31.77,31.77,0,0,0,86.07,42.65,69,69,0,0,1,69.72,70.06,69.28,69.28,0,0,1,42,87.3a31.67,31.67,0,0,0-21.79,30.12v.3c9.44,0,42.18-2.25,68.28-28.74l.32-.33c25.11-25.71,27.54-56.38,27.42-68.37Z" style="fill:#fff;stroke:#fff;stroke-miterlimit:10"/><path d="M229.71,115.91a31.77,31.77,0,0,0-22.36-29.84A68.31,68.31,0,0,1,162.7,42a31.67,31.67,0,0,0-30.12-21.79h-.3c0,9.44,2.25,42.18,28.74,68.28l.33.32c25.71,25.11,56.38,27.54,68.37,27.42Z" style="fill:#fff;stroke:#fff;stroke-miterlimit:10"/></svg>